<?xml version="1.0" standalone="no"?>
<!DOCTYPE svg PUBLIC "-//W3C//DTD SVG 20010904//EN"
 "http://www.w3.org/TR/2001/REC-SVG-20010904/DTD/svg10.dtd">
<svg version="1.0" xmlns="http://www.w3.org/2000/svg"
 width="1024.000000pt" height="1024.000000pt" viewBox="0 0 1024.000000 1024.000000"
 preserveAspectRatio="xMidYMid meet">

<g transform="translate(0.000000,1024.000000) scale(0.100000,-0.100000)"
fill="#000000" stroke="none">
<path d="M4770 7925 c-390 -59 -751 -189 -1037 -374 -97 -62 -123 -98 -123
-167 0 -88 63 -154 147 -154 47 0 79 12 138 50 259 169 639 298 980 331 144
14 418 6 559 -16 273 -42 568 -147 785 -277 73 -45 95 -53 146 -56 50 -3 66 0
94 20 65 45 88 125 55 194 -45 94 -402 278 -714 368 -231 67 -390 88 -680 92
-186 2 -281 -1 -350 -11z"/>
<path d="M5705 7094 c-101 -19 -221 -82 -289 -150 -71 -71 -111 -142 -136
-240 -19 -75 -20 -112 -20 -1123 0 -1161 -2 -1124 66 -1259 47 -93 153 -196
248 -242 126 -60 122 -60 1007 -60 770 0 809 1 883 20 208 53 355 187 428 390
l23 65 3 808 c2 525 -1 828 -8 864 -19 108 -49 153 -202 309 -181 186 -557
543 -607 579 -78 54 -95 55 -736 54 -458 -1 -606 -4 -660 -15z m1135 -431 c1
-280 11 -379 46 -443 36 -67 101 -124 170 -150 50 -18 78 -20 345 -20 l290 0
-3 -767 c-3 -763 -3 -768 -25 -815 -30 -66 -96 -133 -162 -165 l-56 -28 -845
0 c-976 0 -911 -6 -1011 94 -101 102 -94 8 -94 1211 0 833 3 1052 13 1082 29
82 102 153 189 184 30 10 152 13 591 14 l552 0 0 -197z m533 -207 c103 -98
187 -182 187 -187 0 -5 -83 -8 -192 -7 -293 4 -298 9 -298 298 l0 184 58 -55
c31 -30 141 -135 245 -233z"/>
<path d="M5928 5824 c-84 -45 -71 -178 19 -204 27 -8 231 -10 675 -8 l636 3
26 24 c59 55 51 140 -16 181 -32 19 -48 20 -673 20 -547 -1 -644 -3 -667 -16z"/>
<path d="M5928 5404 c-35 -18 -58 -62 -58 -110 0 -28 8 -44 34 -70 l34 -34
660 0 c650 0 660 0 685 21 37 28 52 88 34 131 -8 18 -24 42 -37 53 -22 20 -38
20 -674 22 -562 2 -655 0 -678 -13z"/>
<path d="M5934 4990 c-57 -23 -80 -100 -49 -160 32 -62 10 -61 725 -58 l650 3
32 32 c40 40 44 96 12 140 -40 54 -21 53 -709 52 -352 0 -650 -4 -661 -9z"/>
<path d="M2855 7054 c-91 -19 -235 -88 -307 -148 -123 -100 -210 -240 -248
-396 -19 -82 -20 -114 -20 -1013 0 -1047 -3 -999 77 -1167 39 -81 59 -107 137
-185 77 -77 106 -98 186 -137 166 -81 141 -79 1015 -76 l770 3 80 27 c193 66
355 206 432 373 68 147 67 143 68 640 0 248 -2 621 -5 830 l-5 380 -25 49
c-18 36 -105 127 -325 341 -379 368 -465 448 -506 471 -32 18 -68 19 -644 21
-504 1 -622 -1 -680 -13z m1143 -799 c12 -33 36 -79 52 -103 17 -24 27 -49 24
-55 -4 -7 -4 -9 1 -5 4 4 26 -8 49 -26 119 -95 168 -106 458 -106 l228 0 -2
-662 c-1 -365 -5 -591 -8 -503 -3 114 -7 151 -13 127 -16 -62 -121 -204 -221
-299 -79 -77 -113 -101 -189 -137 -51 -24 -113 -49 -139 -55 -62 -15 -1357
-16 -1423 -1 -60 13 -109 39 -172 88 -54 43 -113 123 -114 156 0 21 -1 21 -9
1 -5 -11 -9 353 -9 845 -1 746 1 874 14 925 44 170 157 296 322 358 56 21 72
22 588 27 l530 5 6 -260 c5 -233 8 -266 27 -320z m273 378 c13 -16 12 -17 -3
-4 -10 7 -18 15 -18 17 0 8 8 3 21 -13z m39 -410 c0 -8 -38 17 -51 33 -9 11
-2 9 19 -6 17 -13 32 -25 32 -27z m370 12 c13 -14 21 -25 18 -25 -2 0 -15 11
-28 25 -13 14 -21 25 -18 25 2 0 15 -11 28 -25z m-325 -25 c13 -6 15 -9 5 -9
-8 0 -22 4 -30 9 -18 12 -2 12 25 0z m128 -17 c-7 -2 -19 -2 -25 0 -7 3 -2 5
12 5 14 0 19 -2 13 -5z m240 0 c-7 -2 -19 -2 -25 0 -7 3 -2 5 12 5 14 0 19 -2
13 -5z m84 -1595 c-3 -7 -5 -2 -5 12 0 14 2 19 5 13 2 -7 2 -19 0 -25z"/>
<path d="M2988 6813 c6 -2 18 -2 25 0 6 3 1 5 -13 5 -14 0 -19 -2 -12 -5z"/>
<path d="M3218 6813 c6 -2 18 -2 25 0 6 3 1 5 -13 5 -14 0 -19 -2 -12 -5z"/>
<path d="M3303 6813 c9 -2 23 -2 30 0 6 3 -1 5 -18 5 -16 0 -22 -2 -12 -5z"/>
<path d="M3463 6813 c20 -2 54 -2 75 0 20 2 3 4 -38 4 -41 0 -58 -2 -37 -4z"/>
<path d="M3628 6813 c12 -2 30 -2 40 0 9 3 -1 5 -23 4 -22 0 -30 -2 -17 -4z"/>
<path d="M3718 6813 c7 -3 16 -2 19 1 4 3 -2 6 -13 5 -11 0 -14 -3 -6 -6z"/>
<path d="M3788 6813 c12 -2 30 -2 40 0 9 3 -1 5 -23 4 -22 0 -30 -2 -17 -4z"/>
<path d="M3897 6813 l53 -4 3 -227 2 -227 3 233 2 232 -57 -2 -58 -2 52 -3z"/>
<path d="M2938 6803 c7 -3 16 -2 19 1 4 3 -2 6 -13 5 -11 0 -14 -3 -6 -6z"/>
<path d="M2855 6790 c-13 -5 -14 -9 -5 -9 8 0 24 4 35 9 13 5 14 9 5 9 -8 0
-24 -4 -35 -9z"/>
<path d="M2810 6770 c-9 -6 -10 -10 -3 -10 6 0 15 5 18 10 8 12 4 12 -15 0z"/>
<path d="M2719 6713 c-13 -16 -12 -17 4 -4 9 7 17 15 17 17 0 8 -8 3 -21 -13z"/>
<path d="M2561 6511 c-11 -27 -21 -58 -20 -68 0 -10 6 0 13 22 7 22 18 51 25
63 7 13 11 26 8 28 -2 3 -14 -18 -26 -45z"/>
<path d="M2531 6404 c0 -11 3 -14 6 -6 3 7 2 16 -1 19 -3 4 -6 -2 -5 -13z"/>
<path d="M3965 6294 c3 -23 12 -56 20 -75 18 -38 14 -17 -10 66 -15 49 -15 49
-10 9z"/>
<path d="M2523 6190 c0 -30 2 -43 4 -27 2 15 2 39 0 55 -2 15 -4 2 -4 -28z"/>
<path d="M2524 6035 c0 -55 1 -76 3 -47 2 29 2 74 0 100 -2 26 -3 2 -3 -53z"/>
<path d="M3558 6092 c-10 -4 12 -7 47 -7 35 0 57 3 47 7 -9 4 -30 7 -47 7 -16
0 -38 -3 -47 -7z"/>
<path d="M4080 6076 c0 -2 8 -10 18 -17 15 -13 16 -12 3 4 -13 16 -21 21 -21
13z"/>
<path d="M3532 6053 c-67 -33 -106 -118 -87 -190 4 -17 58 -80 138 -160 l131
-133 -360 0 c-353 0 -361 0 -404 -22 -52 -27 -90 -84 -90 -138 0 -51 38 -121
80 -145 33 -19 52 -20 397 -20 200 0 363 -2 363 -4 0 -2 -52 -54 -116 -117
-63 -63 -122 -130 -130 -149 -58 -139 82 -280 219 -221 18 7 43 24 56 36 17
17 25 20 31 10 5 -8 10 -9 14 -2 3 6 1 12 -5 14 -6 2 98 115 232 251 152 154
251 263 262 287 21 48 12 105 -25 147 -70 81 -537 547 -560 559 -36 19 -105
17 -146 -3z"/>
<path d="M4120 6042 c0 -4 10 -13 23 -21 22 -14 22 -14 3 8 -20 22 -26 25 -26
13z"/>
<path d="M4197 5989 c7 -7 15 -10 18 -7 3 3 -2 9 -12 12 -14 6 -15 5 -6 -5z"/>
<path d="M3420 5950 c-6 -23 -9 -44 -7 -46 2 -3 9 14 15 38 6 23 9 44 7 46 -2
2 -9 -15 -15 -38z"/>
<path d="M4288 5953 c7 -3 16 -2 19 1 4 3 -2 6 -13 5 -11 0 -14 -3 -6 -6z"/>
<path d="M4343 5943 c9 -2 25 -2 35 0 9 3 1 5 -18 5 -19 0 -27 -2 -17 -5z"/>
<path d="M2522 5738 c2 -194 6 -171 10 65 2 70 0 127 -4 127 -5 0 -7 -87 -6
-192z"/>
<path d="M4795 5440 c0 -267 1 -376 2 -242 2 133 2 351 0 485 -1 133 -2 24 -2
-243z"/>
<path d="M3421 5864 c0 -11 3 -14 6 -6 3 7 2 16 -1 19 -3 4 -6 -2 -5 -13z"/>
<path d="M3500 5745 c7 -9 15 -13 17 -11 7 7 -7 26 -19 26 -6 0 -6 -6 2 -15z"/>
<path d="M3582 5666 c7 -8 15 -12 17 -11 5 6 -10 25 -20 25 -5 0 -4 -6 3 -14z"/>
<path d="M2988 5583 c6 -2 18 -2 25 0 6 3 1 5 -13 5 -14 0 -19 -2 -12 -5z"/>
<path d="M3208 5583 c7 -3 16 -2 19 1 4 3 -2 6 -13 5 -11 0 -14 -3 -6 -6z"/>
<path d="M3283 5583 c9 -2 23 -2 30 0 6 3 -1 5 -18 5 -16 0 -22 -2 -12 -5z"/>
<path d="M3338 5583 c7 -3 16 -2 19 1 4 3 -2 6 -13 5 -11 0 -14 -3 -6 -6z"/>
<path d="M3448 5583 c7 -3 16 -2 19 1 4 3 -2 6 -13 5 -11 0 -14 -3 -6 -6z"/>
<path d="M3528 5583 c28 -2 76 -2 105 0 28 2 5 3 -53 3 -58 0 -81 -1 -52 -3z"/>
<path d="M2521 5413 c0 -60 2 -103 4 -98 8 20 10 205 3 205 -5 0 -8 -48 -7
-107z"/>
<path d="M4291 5414 c0 -11 3 -14 6 -6 3 7 2 16 -1 19 -3 4 -6 -2 -5 -13z"/>
<path d="M2841 5377 c-1 -21 25 -87 34 -87 3 0 3 5 -1 11 -4 7 -13 30 -20 53
-7 23 -13 33 -13 23z"/>
<path d="M4249 5293 c-13 -16 -12 -17 4 -4 9 7 17 15 17 17 0 8 -8 3 -21 -13z"/>
<path d="M2520 5035 c0 -137 3 -246 6 -242 7 7 6 478 -1 485 -3 3 -5 -106 -5
-243z"/>
<path d="M3003 5223 c9 -2 23 -2 30 0 6 3 -1 5 -18 5 -16 0 -22 -2 -12 -5z"/>
<path d="M3063 5223 c9 -2 23 -2 30 0 6 3 -1 5 -18 5 -16 0 -22 -2 -12 -5z"/>
<path d="M3118 5223 c7 -3 16 -2 19 1 4 3 -2 6 -13 5 -11 0 -14 -3 -6 -6z"/>
<path d="M3158 5223 c7 -3 16 -2 19 1 4 3 -2 6 -13 5 -11 0 -14 -3 -6 -6z"/>
<path d="M3208 5223 c12 -2 30 -2 40 0 9 3 -1 5 -23 4 -22 0 -30 -2 -17 -4z"/>
<path d="M3298 5223 c6 -2 18 -2 25 0 6 3 1 5 -13 5 -14 0 -19 -2 -12 -5z"/>
<path d="M3373 5223 c9 -2 23 -2 30 0 6 3 -1 5 -18 5 -16 0 -22 -2 -12 -5z"/>
<path d="M3463 5223 c9 -2 23 -2 30 0 6 3 -1 5 -18 5 -16 0 -22 -2 -12 -5z"/>
<path d="M3523 5223 c9 -2 25 -2 35 0 9 3 1 5 -18 5 -19 0 -27 -2 -17 -5z"/>
<path d="M3422 4950 c0 -14 2 -19 5 -12 2 6 2 18 0 25 -3 6 -5 1 -5 -13z"/>
<path d="M3417 4869 c4 -13 8 -18 11 -10 2 7 -1 18 -6 23 -8 8 -9 4 -5 -13z"/>
<path d="M2520 4744 c0 -19 4 -33 8 -30 8 5 4 66 -4 66 -2 0 -4 -16 -4 -36z"/>
<path d="M5508 3900 c-20 -11 -47 -36 -60 -57 -23 -37 -23 -43 -26 -334 l-3
-297 -102 -13 c-63 -9 -197 -14 -347 -14 -206 0 -270 4 -400 24 -453 68 -878
224 -1206 441 -120 79 -155 90 -219 66 -87 -34 -129 -117 -105 -206 27 -102
361 -390 660 -570 480 -289 1011 -440 1547 -440 l183 0 0 -165 c0 -184 7 -214
58 -257 43 -36 94 -51 157 -46 85 7 85 7 615 398 441 325 666 495 709 535 98
90 92 191 -17 262 -56 36 -657 354 -1044 552 -302 154 -324 161 -400 121z
m237 -287 c44 -23 215 -114 380 -202 165 -89 371 -198 457 -244 87 -45 157
-86 155 -91 -4 -11 -1068 -805 -1079 -805 -5 -1 -8 79 -8 177 0 198 -4 212
-67 239 -29 12 -54 12 -156 2 -326 -31 -780 44 -1171 195 -134 52 -360 159
-471 223 -143 83 -404 268 -393 278 2 2 51 -20 108 -50 192 -98 491 -210 705
-264 406 -102 855 -125 1256 -66 123 19 144 27 169 67 19 31 20 51 20 311 0
153 3 277 8 275 4 -2 43 -22 87 -45z"/>
</g>
</svg>
